<svg xmlns="http://www.w3.org/2000/svg" xmlns:xlink="http://www.w3.org/1999/xlink" version="1.1" id="Ebene_1" x="0px" y="0px" viewBox="0 0 257.8 258.7" style="enable-background:new 0 0 257.8 258.7;" width="257.8px" height="258.7px" xml:space="preserve">
<path class="st0" d="M143.2,175.2c-6.6,5.5-14.5,8.3-23.8,8.3c-12.2,0-22.1-3.3-29.8-9.9c1-4.8,3.6-8.9,8.1-12.4  c6.2,4.7,12.3,7,18.1,7c5.8,0,10.3-1.5,13.4-4.4c3.1-2.9,4.7-6.8,4.7-11.7c0-4.8-1.3-8.6-4-11.2c-2.7-2.6-5.9-3.9-9.6-3.9  c-3.7,0-6.9,0.7-9.6,2c-1.6-0.7-3.1-2-4.5-3.9c-1.3-1.9-2.3-4-2.7-6.2l15.5-16.5c4.5-4.5,7.8-7.5,9.8-9.1l-0.6-0.9  c-3.5,1.1-8.5,1.6-15.3,1.6H94c-0.8-2.2-1.2-4.8-1.2-7.8c0-3,0.5-5.7,1.6-8.2h51.1c2.6,4.7,3.9,8.5,3.9,11.3c0,2.8-1.2,5.5-3.7,8.1  l-12.9,13.5c-1.7,1.7-3.3,3.1-4.7,4c7.4,0.7,13.4,3.3,18.1,8c4.7,4.7,7,11.4,7,20.4C153,162.4,149.7,169.6,143.2,175.2 M129.4,0  C59,0,0,57.1,0,127.5v131.3h131.3c70.4,0,126.5-59,126.5-129.4C257.8,59,199.8,0,129.4,0"/>
</svg>
